<svg width="210" height="210" viewBox="0 0 210 210" fill="none" xmlns="http://www.w3.org/2000/svg">
<circle cx="105" cy="105" r="97" stroke="#B5C6CF" stroke-opacity="0.5" stroke-width="8" stroke-dasharray="1 2"/>
<circle cx="105" cy="105" r="99" stroke="white" stroke-width="12" stroke-dasharray="1 150"/>
<path d="M105.5 23.1406C107.662 23.1406 109.039 21.875 109.039 20.0117V15.3535C109.039 14.7676 108.711 14.4277 108.154 14.4277C107.598 14.4277 107.27 14.7676 107.27 15.3535V19.8359C107.27 20.9199 106.631 21.6289 105.5 21.6289C104.363 21.6289 103.725 20.9199 103.725 19.8359V15.3535C103.725 14.7676 103.396 14.4277 102.84 14.4277C102.283 14.4277 101.955 14.7676 101.955 15.3535V20.0117C101.955 21.875 103.332 23.1406 105.5 23.1406Z" fill="white"/>
<path d="M105.006 195.141C107.115 195.141 108.41 194.098 108.41 192.445C108.41 191.162 107.637 190.441 105.844 190.084L104.953 189.902C103.951 189.703 103.547 189.381 103.547 188.859C103.547 188.238 104.127 187.828 105 187.828C105.727 187.828 106.271 188.092 106.553 188.73C106.752 189.094 106.998 189.252 107.396 189.252C107.848 189.252 108.152 188.965 108.152 188.543C108.152 188.391 108.129 188.268 108.088 188.15C107.713 187.049 106.547 186.398 105 186.398C103.119 186.398 101.771 187.424 101.771 188.971C101.771 190.23 102.598 191.039 104.285 191.373L105.182 191.549C106.242 191.766 106.641 192.082 106.641 192.639C106.641 193.26 105.996 193.717 105.047 193.717C104.238 193.717 103.576 193.424 103.301 192.779C103.09 192.404 102.85 192.264 102.486 192.264C102.029 192.264 101.707 192.574 101.707 193.043C101.707 193.201 101.742 193.365 101.801 193.518C102.141 194.443 103.26 195.141 105.006 195.141Z" fill="white"/>
<path d="M15.75 109H18.6094C20.4141 109 21.5332 108.068 21.5332 106.58C21.5332 105.461 20.6895 104.623 19.541 104.535V104.488C20.4375 104.354 21.1289 103.58 21.1289 102.654C21.1289 101.359 20.1328 100.545 18.5449 100.545H15.75C15.1934 100.545 14.8652 100.885 14.8652 101.465V108.074C14.8652 108.66 15.1934 109 15.75 109ZM16.6348 104.061V101.863H18.0879C18.9141 101.863 19.3887 102.25 19.3887 102.93C19.3887 103.645 18.8496 104.061 17.9062 104.061H16.6348ZM16.6348 107.682V105.227H18.1172C19.1602 105.227 19.7285 105.648 19.7285 106.439C19.7285 107.248 19.1777 107.682 18.1582 107.682H16.6348Z" fill="white"/>
<path d="M192 109.111C192.557 109.111 192.885 108.771 192.885 108.191V102.01H194.637C195.111 102.01 195.434 101.734 195.434 101.277C195.434 100.82 195.117 100.545 194.637 100.545H189.369C188.883 100.545 188.566 100.82 188.566 101.277C188.566 101.734 188.889 102.01 189.369 102.01H191.115V108.191C191.115 108.771 191.443 109.111 192 109.111Z" fill="white"/>
</svg>
