<svg width="18" height="18" viewBox="0 0 18 18" fill="none" xmlns="http://www.w3.org/2000/svg">
<g clip-path="url(#clip0_58_1187)">
<path d="M0 5.16602H1.57227V3.125C1.57227 2.10938 2.10938 1.5918 3.08594 1.5918H5.10742V0.0195312H3.06641C1.02539 0.0195312 0 1.02539 0 3.04688V5.16602ZM6.44531 1.5918H11.5332V0.0195312H6.44531V1.5918ZM16.4062 5.16602H17.9785V3.04688C17.9785 1.03516 16.9531 0.0195312 14.9121 0.0195312H12.8711V1.5918H14.8926C15.8594 1.5918 16.4062 2.10938 16.4062 3.125V5.16602ZM16.4062 11.5137H17.9785V6.50391H16.4062V11.5137ZM12.8711 17.998H14.9121C16.9531 17.998 17.9785 16.9824 17.9785 14.9707V12.8516H16.4062V14.8926C16.4062 15.9082 15.8594 16.4258 14.8926 16.4258H12.8711V17.998ZM6.44531 17.998H11.5332V16.4258H6.44531V17.998ZM3.06641 17.998H5.10742V16.4258H3.08594C2.10938 16.4258 1.57227 15.9082 1.57227 14.8926V12.8516H0V14.9707C0 16.9922 1.02539 17.998 3.06641 17.998ZM0 11.5137H1.57227V6.50391H0V11.5137Z" fill="white"/>
<g clip-path="url(#clip1_58_1187)">
<path d="M6.24237 10.2629H12.1632C13.7281 10.2629 14.8922 9.07487 14.8922 7.60542C14.8922 6.08347 13.6517 4.97183 12.0344 4.97183C11.438 3.79339 10.3311 3.03481 8.95229 3.03481C7.1584 3.03481 5.67939 4.44225 5.52195 6.21229C4.6584 6.46515 4 7.2142 4 8.22088C4 9.35158 4.82061 10.2629 6.24237 10.2629ZM5.38836 13.8506L6.79103 11.4222C6.87691 11.2695 6.8292 11.1073 6.68607 11.0262C6.54294 10.9404 6.38073 10.9833 6.29485 11.136L4.88741 13.5739C4.81107 13.7075 4.84924 13.8745 4.99237 13.9604C5.1355 14.0415 5.30725 13.9938 5.38836 13.8506ZM7.29199 13.8506L8.68989 11.4222C8.77577 11.2695 8.73283 11.1073 8.5897 11.0262C8.4418 10.9404 8.27959 10.9833 8.1937 11.136L6.79103 13.5739C6.7147 13.7075 6.74809 13.8745 6.89599 13.9604C7.03912 14.0415 7.21088 13.9938 7.29199 13.8506ZM9.19085 13.8506L10.5887 11.4222C10.6746 11.2695 10.6317 11.1073 10.4885 11.0262C10.3406 10.9404 10.1784 10.9833 10.0926 11.136L8.68989 13.5739C8.61355 13.7075 8.64695 13.8745 8.79485 13.9604C8.93797 14.0415 9.10975 13.9938 9.19085 13.8506ZM11.0754 13.8554L12.4876 11.4127C12.5687 11.2695 12.5258 11.0978 12.3826 11.0262C12.2443 10.9499 12.0773 10.9833 11.9962 11.1312L10.5935 13.5644C10.5076 13.7075 10.5506 13.8745 10.6889 13.9604C10.8225 14.0415 10.9991 13.9938 11.0754 13.8554Z" fill="white"/>
</g>
</g>
<defs>
<clipPath id="clip0_58_1187">
<rect width="17.9785" height="17.998" fill="white"/>
</clipPath>
<clipPath id="clip1_58_1187">
<rect width="10.8922" height="11" fill="white" transform="translate(4 3)"/>
</clipPath>
</defs>
</svg>
