<svg width="60" height="95" viewBox="0 0 60 95" fill="none" xmlns="http://www.w3.org/2000/svg">
<path d="M0.633217 74.9268C0.432515 74.5041 0.347378 74.1526 0.499985 74C0.699986 73.8 1.05999 73.76 1.41999 73.72C1.96 73.66 2.5 73.6 2.5 73C2.5 72 3.5 68 4 68C4.15138 68 4.44022 68.0916 4.75557 68.1917C5.48182 68.4221 6.34861 68.6972 6 68C5.5 67 5 64 5.5 63.5C5.65139 63.3486 5.94029 63.1972 6.25567 63.0319C6.98192 62.6513 7.84861 62.1972 7.5 61.5C7 60.5 4.5 54.5 5.5 54.5C6.5 54.5 9.5 54 10 53C10.5 52 13 46.5 12.5 46C12.309 45.809 12.118 45.6909 11.9549 45.5901C11.691 45.427 11.5 45.309 11.5 45C11.5 44.8486 11.4542 44.6513 11.4041 44.436C11.2889 43.9402 11.1514 43.3486 11.5 43C12 42.5 12.5 42 12 41.5C11.882 41.3819 11.7361 41.2639 11.582 41.1393C11.0836 40.736 10.5 40.2639 10.5 39.5C10.5 39.118 10.5729 38.809 10.6352 38.5451C10.736 38.1181 10.809 37.809 10.5 37.5C10.3 37.3 10.1 37.26 9.90001 37.22C9.60001 37.16 9.3 37.1 9 36.5C8.83333 36.1666 8.55556 35.7777 8.27778 35.3888C7.72222 34.6111 7.16666 33.8333 7.5 33.5C7.65138 33.3486 7.98607 33.1514 8.35147 32.9361C9.19295 32.4403 10.1972 31.8486 9.5 31.5C8.5 31 6.5 29 6 28C5.85806 27.7161 5.63553 27.3919 5.40104 27.0503C4.80953 26.1886 4.14195 25.2161 4.5 24.5C5 23.5 5.5 22.5 6.5 22.5C7.5 22.5 8 22.5 8.5 21.5C9 20.5 10.5 17.5 11 18C11.1328 18.1327 11.2655 18.336 11.4077 18.5536C11.8008 19.1555 12.2656 19.8672 13 19.5C13.2071 19.3964 13.5429 19.25 13.9363 19.0784C15.4424 18.4216 17.7929 17.3964 17 17C16 16.5 15 15.5 15 15C15 14.8596 14.9606 14.6798 14.915 14.4717C14.7981 13.9385 14.6404 13.2192 15 12.5C15.1319 12.2362 15.3333 11.729 15.5768 11.1158C16.2565 9.4044 17.2638 6.86809 18 6.49998C18.382 6.30899 18.7639 6.33686 19.0902 6.36066C19.618 6.39916 20 6.42703 20 5.49998C20 5.09807 19.9641 4.73206 19.9308 4.39232C19.8398 3.46412 19.768 2.73203 20.5 1.99998C20.8494 1.65056 21.0767 1.17906 21.1606 0.62813C20.9601 0.624977 21.253 0.62813 21.1606 0.62813C21.6606 0.62813 23.7072 0.624954 23.7072 1.12495C23.7072 1.43397 23.8982 1.55201 24.1621 1.71512C24.3252 1.81594 24.5162 1.93397 24.7072 2.12495C24.9572 2.37495 24.8322 2.49995 24.7697 2.56245C24.7521 2.58011 24.7394 2.59278 24.7416 2.60187C24.7471 2.62495 24.8485 2.62495 25.2072 2.62495C26.2072 2.62495 27.2072 2.62495 27.2072 3.12495C27.2072 3.31594 27.1343 3.43397 27.072 3.53478C26.9711 3.6979 26.8982 3.81594 27.2072 4.12495C27.3982 4.31594 27.5162 4.50692 27.617 4.67004C27.7802 4.93397 27.8982 5.12495 28.2072 5.12495C28.3739 5.12495 28.5961 5.23606 28.8183 5.34718C29.2628 5.5694 29.7072 5.79162 29.7072 5.12495C29.7072 4.7023 29.7965 4.45829 29.8619 4.27965C29.9512 4.03564 29.9959 3.91363 29.7072 3.62495C29.6029 3.5206 29.4767 3.41624 29.3561 3.31643C28.8987 2.93802 28.5203 2.62495 29.7072 2.62495C31.2072 2.62495 31.7072 3.12495 31.2072 3.62495C31.0405 3.79162 30.9294 3.84718 30.8554 3.88421C30.8183 3.90273 30.7905 3.91662 30.7697 3.93745C30.7072 3.99995 30.7072 4.12495 30.7072 4.62495C30.7072 5.62495 30.7072 6.12495 31.2072 6.12495C31.7072 6.12495 32.2072 6.62495 32.2072 7.12495C32.2072 7.62495 32.7072 7.62495 33.2072 7.62495C33.3322 7.62495 33.5822 7.6562 33.8947 7.69527C34.8322 7.81245 36.3322 7.99995 36.7072 7.62495C37.2072 7.12495 41.2072 6.62495 41.2072 7.62495C41.2072 8.23847 41.2072 8.47558 41.3227 8.56722C41.3954 8.62495 41.514 8.62495 41.7072 8.62495C41.9572 8.62495 42.0822 8.49995 42.2072 8.37495C42.3322 8.24995 42.4572 8.12495 42.7072 8.12495C42.8982 8.12495 43.0892 8.052 43.2523 7.9897C43.5162 7.88889 43.7072 7.81594 43.7072 8.12495C43.7072 8.37495 43.8322 8.37495 44.0197 8.37495C44.2072 8.37495 44.4572 8.37495 44.7072 8.62495C44.9572 8.87495 45.0822 8.87495 45.2072 8.87495C45.3322 8.87495 45.4572 8.87495 45.7072 9.12495C45.8982 9.31594 46.0162 9.50692 46.1171 9.67004C46.2802 9.93397 46.3982 10.125 46.7072 10.125H48.2072C48.4572 10.125 48.5822 10.125 48.6447 10.0625C48.7072 9.99995 48.7072 9.87495 48.7072 9.62495C48.7072 9.45829 48.6517 9.34718 48.6146 9.2731C48.5918 9.22735 48.5759 9.19573 48.5846 9.17387C48.6041 9.12495 48.7464 9.12495 49.2072 9.12495C49.7823 9.12495 50.0266 9.12495 50.2256 9.22003C50.3726 9.29029 50.4947 9.41248 50.7072 9.62495C50.9264 9.84418 51.2418 9.96728 51.5268 10.0786C51.8919 10.2211 52.2072 10.3442 52.2072 10.625C52.2072 11.125 53.2072 11.625 53.2072 11.125C53.2072 10.625 54.2072 10.625 54.2072 11.125C54.2072 11.375 54.2072 11.5 54.2697 11.5625C54.3322 11.625 54.4572 11.625 54.7072 11.625H56.6988C56.7965 11.7462 56.897 11.8711 57.0001 12C58.6578 14.0722 58.2544 14.4268 57.2136 15.3417C56.9988 15.5305 56.7567 15.7433 56.5001 16C55.0001 17.5 55.5001 18 57.0001 19C58.3216 19.881 58.4788 20.3739 58.8395 21.5045C58.8882 21.6572 58.9406 21.8215 59.0001 22C59.5001 23.5 54.0001 28 53.0001 28.5C52.2427 28.8786 52.3457 29.8309 52.4403 30.7051C52.4706 30.9852 52.5001 31.2573 52.5001 31.5C52.5001 32.5 52.5001 33.4999 51.5001 33.9999C50.5001 34.4999 49.5001 35.4999 50.5001 35.9999C51.5001 36.4999 51.0001 36.9999 50.0001 37.4999C49.7501 37.625 49.2188 37.875 48.5546 38.1875C46.5624 39.125 43.375 40.625 43.0001 40.9999C42.5001 41.4999 42.5001 44.4999 43.0001 45.4999C43.5001 46.4999 44.0001 46.9999 45.0001 47.4999C45.5265 47.7632 45.7758 47.8878 46.0398 47.9469C46.2772 47.9999 46.5265 47.9999 47.0001 47.9999C47.6104 47.9999 47.662 48.5587 47.7232 49.2215C47.7622 49.6447 47.8052 50.1103 48.0001 50.4999C48.3466 51.1929 48.6931 50.9254 49.206 50.5294C49.4332 50.354 49.6931 50.1534 50.0001 49.9999C50.8082 49.5958 51.6163 50.1714 52.6884 50.9349C52.9429 51.1162 53.2123 51.308 53.5001 51.4999C54.5001 52.1666 52.1667 52.8332 50.3519 53.3517C49.4445 53.611 48.6667 53.8332 48.5001 53.9999C48.25 54.2499 48.25 54.6249 48.2501 55.0624C48.2501 55.4999 48.2501 55.9999 48.0001 56.4999C47.7728 56.9544 47.5455 56.8924 47.3182 56.8305C47.0455 56.7561 46.7728 56.6817 46.5001 57.4999C46.1926 58.4221 46.4523 58.9664 46.6979 59.4812C46.8517 59.8037 47.0001 60.1147 47.0001 60.4999C47.0001 61.0274 46.7218 61.1375 46.3854 61.2706C46.0842 61.3898 45.7363 61.5274 45.5001 61.9999C45.0806 62.8388 47.828 65.437 49.3145 66.8428C49.5999 67.1127 49.839 67.3388 50.0001 67.4999C50.5715 68.0713 50.4899 68.6428 50.4082 69.2142C50.347 69.6428 50.2858 70.0713 50.5001 70.4999C50.6515 70.8027 50.8029 71.1513 50.9681 71.5319C51.3487 72.4082 51.8029 73.4541 52.5001 74.4999C53.1887 75.5328 52.2178 76.0915 51.2198 76.6658C50.7684 76.9255 50.3115 77.1885 50.0001 77.4999C49.3821 78.1179 49.337 78.545 49.2747 79.1351C49.2362 79.4999 49.1911 79.9269 49.0001 80.4999C48.6945 81.4167 50.7042 83.3647 52.4873 84.8276C52.2556 84.875 52.1274 84.875 52.0197 84.875C51.8322 84.875 51.7072 84.875 51.2072 85.125C50.7072 85.375 50.5822 85.5 50.4572 85.625C50.3322 85.75 50.2072 85.875 49.7072 86.125C49.2883 86.3344 49.3081 86.4561 49.3255 86.5636C49.3497 86.7127 49.3695 86.8344 48.2072 87.125C47.0841 87.4057 46.907 87.5288 46.702 87.6714C46.542 87.7826 46.3649 87.9057 45.7072 88.125C44.8798 88.4008 44.3567 88.2202 43.97 88.0867C43.6556 87.9782 43.4314 87.9008 43.2072 88.125L41.7072 89.625C41.4929 89.8392 41.2786 89.778 41.0643 89.7168C40.7786 89.6352 40.4929 89.5535 40.2072 90.125C39.8739 90.7916 39.5405 91.0138 39.2072 91.2361C39.0405 91.3472 38.8739 91.4583 38.7072 91.625L37.2072 93.125C36.7072 93.625 35.7072 94.125 35.2072 94.125C35.0001 94.125 34.8788 94.0392 34.7366 93.9387C34.5356 93.7965 34.293 93.625 33.7072 93.625H30.7072C30.0968 93.625 29.7348 93.7906 29.4527 93.9196C29.0416 94.1076 28.8003 94.218 28.2072 93.625C27.2072 92.625 26.7072 92.125 26.2072 92.125C26.0072 92.125 25.8072 91.965 25.6072 91.805C25.3072 91.565 25.0072 91.325 24.7072 91.625C24.5162 91.8159 24.3982 92.0069 24.2974 92.1701C24.1342 92.434 24.0162 92.625 23.7072 92.625C23.5001 92.625 23.4646 92.4534 23.4229 92.2524C23.364 91.9681 23.293 91.625 22.7072 91.625C22.2072 91.625 21.9572 91.5 21.7072 91.375C21.4572 91.25 21.2072 91.125 20.7072 91.125C19.7072 91.125 18.2072 90.625 17.7072 90.125C17.488 89.9057 17.5571 89.7826 17.6196 89.6714C17.6996 89.5288 17.7688 89.4057 17.2072 89.125C16.7072 88.875 16.4572 88.625 16.2697 88.4375C16.0822 88.25 15.9572 88.125 15.7072 88.125C15.6209 88.125 15.5793 88.1548 15.5643 88.1964C15.4929 88.0685 15.3799 87.884 15.2072 87.625C14.8739 87.125 14.6516 86.6805 14.4665 86.3102C14.0961 85.5694 13.8739 85.125 13.2072 85.125C12.2072 85.125 10.7072 84.625 10.7072 84.125C10.7072 83.8442 10.3919 83.7211 10.0268 83.5786C9.74176 83.4673 9.42642 83.3442 9.2072 83.125C8.9572 82.875 8.9572 82.5 8.9572 82.125C8.9572 81.75 8.9572 81.375 8.7072 81.125C8.4572 80.875 8.4572 80.625 8.4572 80.375C8.4572 80.125 8.4572 79.875 8.2072 79.625C7.97276 79.3905 7.84825 78.8263 7.73058 78.2931C7.59728 77.6892 7.47276 77.125 7.2072 77.125C6.9945 77.125 6.96277 76.944 6.91954 76.6976C6.86116 76.3647 6.78181 75.9123 6.2072 75.625C5.72635 75.3845 5.59232 74.9129 5.47158 74.488C5.34122 74.0292 5.22635 73.625 4.7072 73.625C3.7072 73.625 2.7072 73.625 2.2072 74.125C1.89818 74.434 1.58917 74.552 1.16211 74.7151C1.00399 74.7755 0.829691 74.8421 0.633217 74.9268Z" fill="#7F9099"/>
</svg>
